<svg id="iconce.com" width="256" height="256" viewBox="0 0 256 256" fill="none" xmlns="http://www.w3.org/2000/svg" xmlns:xlink="http://www.w3.org/1999/xlink"><defs><linearGradient id="r5" gradientUnits="userSpaceOnUse" gradientTransform="rotate(45)" style="transform-origin:center center"><stop stop-color="#68AEFF"/><stop offset="1" stop-color="#003EB7"/></linearGradient><radialGradient id="r6" cx="0" cy="0" r="1" gradientUnits="userSpaceOnUse" gradientTransform="translate(256) rotate(90) scale(512)"><stop stop-color="white"/><stop offset="1" stop-color="white" stop-opacity="0"/></radialGradient></defs><rect id="r4" width="256" height="256" x="0" y="0" rx="64" fill="url(#r5)" stroke="#FFFFFF" stroke-width="0" stroke-opacity="100%" paint-order="stroke"/><rect width="256" height="256" x="0" y="0" fill="url(#r6)" rx="64" style="mix-blend-mode: overlay;"/><svg xmlns="http://www.w3.org/2000/svg" width="128" height="128" viewBox="0 0 24 24" fill="none" stroke="#FFFFFF" stroke-width="2" stroke-linecap="round" stroke-linejoin="round" class="text-white" alignment-baseline="middle" x="64" y="64"><path d="M2.27 21.7s9.87-3.5 12.73-6.36a4.5 4.5 0 0 0-6.36-6.37C5.77 11.84 2.27 21.7 2.27 21.7zM8.64 14l-2.05-2.04M15.34 15l-2.46-2.46"/><path d="M22 9s-1.33-2-3.5-2C16.86 7 15 9 15 9s1.33 2 3.5 2S22 9 22 9z"/><path d="M15 2s-2 1.33-2 3.5S15 9 15 9s2-1.84 2-3.5C17 3.33 15 2 15 2z"/></svg></svg>